<svg width="22" height="22" viewBox="0 0 22 22" fill="none" xmlns="http://www.w3.org/2000/svg">
<path d="M20.9994 4V1L15.1094 6.89" stroke="#AD1113" stroke-width="2" stroke-linecap="round" stroke-linejoin="round"/>
<path d="M15.5996 17.89C17.2565 17.89 18.5996 16.5469 18.5996 14.89C18.5996 13.2332 17.2565 11.89 15.5996 11.89C13.9428 11.89 12.5996 13.2332 12.5996 14.89C12.5996 16.5469 13.9428 17.89 15.5996 17.89Z" stroke="#AD1113" stroke-width="2" stroke-linecap="round" stroke-linejoin="round"/>
<path d="M7.10937 9.40002C8.76623 9.40002 10.1094 8.05688 10.1094 6.40002C10.1094 4.74317 8.76623 3.40002 7.10937 3.40002C5.45252 3.40002 4.10938 4.74317 4.10938 6.40002C4.10938 8.05688 5.45252 9.40002 7.10937 9.40002Z" stroke="#AD1113" stroke-width="2" stroke-linecap="round" stroke-linejoin="round"/>
<path d="M11.3496 13.65C13.0065 13.65 14.3496 12.3069 14.3496 10.65C14.3496 8.99317 13.0065 7.65002 11.3496 7.65002C9.69276 7.65002 8.34961 8.99317 8.34961 10.65C8.34961 12.3069 9.69276 13.65 11.3496 13.65Z" stroke="#AD1113" stroke-width="2" stroke-linecap="round" stroke-linejoin="round"/>
<path d="M12.9102 7.84998C14.567 7.84998 15.9102 6.50683 15.9102 4.84998C15.9102 3.19312 14.567 1.84998 12.9102 1.84998C11.2533 1.84998 9.91016 3.19312 9.91016 4.84998C9.91016 6.50683 11.2533 7.84998 12.9102 7.84998Z" stroke="#AD1113" stroke-width="2" stroke-linecap="round" stroke-linejoin="round"/>
<path d="M17.1504 12.09C18.8072 12.09 20.1504 10.7469 20.1504 9.09003C20.1504 7.43317 18.8072 6.09003 17.1504 6.09003C15.4935 6.09003 14.1504 7.43317 14.1504 9.09003C14.1504 10.7469 15.4935 12.09 17.1504 12.09Z" stroke="#AD1113" stroke-width="2" stroke-linecap="round" stroke-linejoin="round"/>
<path d="M5.56055 15.2C7.2174 15.2 8.56055 13.8569 8.56055 12.2C8.56055 10.5432 7.2174 9.20001 5.56055 9.20001C3.90369 9.20001 2.56055 10.5432 2.56055 12.2C2.56055 13.8569 3.90369 15.2 5.56055 15.2Z" stroke="#AD1113" stroke-width="2" stroke-linecap="round" stroke-linejoin="round"/>
<path d="M9.80078 19.44C11.4576 19.44 12.8008 18.0969 12.8008 16.44C12.8008 14.7831 11.4576 13.44 9.80078 13.44C8.14393 13.44 6.80078 14.7831 6.80078 16.44C6.80078 18.0969 8.14393 19.44 9.80078 19.44Z" stroke="#AD1113" stroke-width="2" stroke-linecap="round" stroke-linejoin="round"/>
<path d="M4 21C5.65685 21 7 19.6569 7 18C7 16.3431 5.65685 15 4 15C2.34315 15 1 16.3431 1 18C1 19.6569 2.34315 21 4 21Z" stroke="#AD1113" stroke-width="2" stroke-linecap="round" stroke-linejoin="round"/>
</svg>
