<svg width="16" height="16" viewBox="0 0 16 16" fill="none" xmlns="http://www.w3.org/2000/svg">
<path d="M10.6681 0C10.8702 0 11.064 0.0802767 11.2069 0.22317C11.3498 0.366064 11.4301 0.559869 11.4301 0.761951V1.5239H15.2402V6.0956H13.7017L15.7942 11.8438C15.944 12.2306 16.0134 12.644 15.9979 13.0586C15.9824 13.4732 15.8824 13.8802 15.7041 14.2548C15.5257 14.6294 15.2728 14.9637 14.9607 15.2371C14.6486 15.5105 14.284 15.7173 13.8892 15.8449C13.4944 15.9725 13.0777 16.0181 12.6647 15.979C12.2516 15.9399 11.8509 15.8169 11.487 15.6175C11.1232 15.4181 10.8039 15.1465 10.5487 14.8194C10.2935 14.4923 10.1078 14.1165 10.0029 13.7151H6.76207C6.58888 14.3838 6.19375 14.974 5.64137 15.3888C5.089 15.8037 4.41212 16.0187 3.72157 15.9987C3.03102 15.9787 2.36772 15.7248 1.8403 15.2787C1.31287 14.8325 0.952572 14.2205 0.818398 13.5429C0.571454 13.4139 0.364594 13.2197 0.220306 12.9814C0.0760177 12.7431 -0.000178443 12.4698 3.138e-07 12.1912V4.5717C3.138e-07 4.36962 0.0802831 4.17582 0.223187 4.03292C0.366092 3.89003 0.559912 3.80975 0.762009 3.80975H6.09607C6.29817 3.80975 6.49199 3.89003 6.63489 4.03292C6.7778 4.17582 6.85808 4.36962 6.85808 4.5717V8.38146C6.85808 8.58354 6.93836 8.77734 7.08127 8.92024C7.22417 9.06313 7.41799 9.14341 7.62009 9.14341H9.14411C9.3462 9.14341 9.54002 9.06313 9.68293 8.92024C9.82583 8.77734 9.90611 8.58354 9.90611 8.38146V1.5239H7.62009V0H10.6681ZM3.81004 11.4293C3.40585 11.4293 3.01821 11.5898 2.7324 11.8756C2.44659 12.1614 2.28603 12.549 2.28603 12.9532C2.28603 13.3573 2.44659 13.7449 2.7324 14.0307C3.01821 14.3165 3.40585 14.4771 3.81004 14.4771C4.21424 14.4771 4.60188 14.3165 4.88769 14.0307C5.1735 13.7449 5.33406 13.3573 5.33406 12.9532C5.33406 12.549 5.1735 12.1614 4.88769 11.8756C4.60188 11.5898 4.21424 11.4293 3.81004 11.4293ZM12.9541 11.4285C12.6301 11.4286 12.3144 11.532 12.0531 11.7237C11.7918 11.9154 11.5984 12.1854 11.501 12.4945C11.4036 12.8036 11.4073 13.1356 11.5116 13.4425C11.6158 13.7493 11.8151 14.015 12.0806 14.2008C12.3461 14.3867 12.664 14.483 12.988 14.4759C13.312 14.4688 13.6253 14.3586 13.8824 14.1613C14.1395 13.964 14.3271 13.6899 14.4177 13.3788C14.5084 13.0677 14.4976 12.7358 14.3867 12.4312L14.3738 12.3977C14.262 12.1122 14.0668 11.8671 13.8135 11.6943C13.5602 11.5215 13.2607 11.4292 12.9541 11.4293M12.0801 6.0956H11.4301V8.38146C11.4301 8.9877 11.1893 9.56912 10.7606 9.9978C10.3319 10.4265 9.7504 10.6673 9.14411 10.6673H7.62009C7.0138 10.6673 6.43234 10.4265 6.00362 9.9978C5.57491 9.56912 5.33406 8.9877 5.33406 8.38146H1.52402V10.937C1.89042 10.5222 2.36285 10.2148 2.89064 10.048C3.41843 9.88116 3.98168 9.86111 4.52 9.99C5.05832 10.1189 5.5514 10.3919 5.94638 10.7796C6.34135 11.1674 6.62333 11.6554 6.76207 12.1912H10.0021C10.1938 11.4483 10.6587 10.8049 11.3039 10.3897C11.9492 9.97442 12.7273 9.8178 13.483 9.95107L12.0801 6.0956ZM5.33406 5.33365H1.52402V6.85755H5.33406V5.33365ZM13.7162 3.0478H11.4301V4.5717H13.7162V3.0478Z" fill="#4A515C"/>
</svg>
