<svg width="20" height="23" viewBox="0 0 20 23" fill="none" xmlns="http://www.w3.org/2000/svg">
<path d="M19 9.68164H1M14 1.68164V5.68164M6 1.68164V5.68164M5.8 21.6816H14.2C15.8802 21.6816 16.7202 21.6816 17.362 21.3547C17.9265 21.067 18.3854 20.6081 18.673 20.0436C19 19.4019 19 18.5618 19 16.8816V8.48164C19 6.80148 19 5.9614 18.673 5.31967C18.3854 4.75518 17.9265 4.29624 17.362 4.00862C16.7202 3.68164 15.8802 3.68164 14.2 3.68164H5.8C4.11984 3.68164 3.27976 3.68164 2.63803 4.00862C2.07354 4.29624 1.6146 4.75518 1.32698 5.31967C1 5.9614 1 6.80148 1 8.48164V16.8816C1 18.5618 1 19.4019 1.32698 20.0436C1.6146 20.6081 2.07354 21.067 2.63803 21.3547C3.27976 21.6816 4.11984 21.6816 5.8 21.6816Z" stroke="#4A515C" stroke-width="1.5" stroke-linecap="round" stroke-linejoin="round"/>
</svg>
