<svg width="22" height="23" viewBox="0 0 22 23" fill="none" xmlns="http://www.w3.org/2000/svg">
<path d="M14 2.13944C13.053 1.84199 12.0452 1.68164 11 1.68164C5.47715 1.68164 1 6.15879 1 11.6816C1 17.2045 5.47715 21.6816 11 21.6816C16.5228 21.6816 21 17.2045 21 11.6816C21 9.96631 20.5681 8.35186 19.8071 6.94109M16 5.43164H16.005M9.50005 21.5699L9.50016 19.3666C9.50017 19.2472 9.54286 19.1318 9.62053 19.0412L12.1063 16.141C12.3106 15.9027 12.2473 15.5373 11.9748 15.3815L9.11853 13.7494C9.04093 13.705 8.97663 13.6407 8.93234 13.5631L7.07046 10.3003C6.97356 10.1305 6.78657 10.0327 6.59183 10.0501L1.06418 10.5424M20 5.68164C20 7.89078 18 9.68164 16 11.6816C14 9.68164 12 7.89078 12 5.68164C12 3.4725 13.7909 1.68164 16 1.68164C18.2091 1.68164 20 3.4725 20 5.68164ZM16.25 5.43164C16.25 5.56971 16.1381 5.68164 16 5.68164C15.8619 5.68164 15.75 5.56971 15.75 5.43164C15.75 5.29357 15.8619 5.18164 16 5.18164C16.1381 5.18164 16.25 5.29357 16.25 5.43164Z" stroke="#4A515C" stroke-width="1.5" stroke-linecap="round" stroke-linejoin="round"/>
</svg>
