<svg version="1.2" xmlns="http://www.w3.org/2000/svg" viewBox="0 0 17 17" width="17" height="17"><style>.a{fill:none;stroke:#4a515c;stroke-linecap:round;stroke-linejoin:round;stroke-width:1.5}</style><path class="a" d="m7.9 1.5c0.2-0.4 0.3-0.6 0.4-0.7q0.2 0 0.4 0c0.1 0.1 0.2 0.3 0.4 0.7l1.9 3.9c0.1 0.1 0.1 0.2 0.2 0.2q0 0.1 0.1 0.1c0.1 0.1 0.1 0.1 0.3 0.1l4.2 0.6c0.5 0.1 0.7 0.1 0.8 0.2q0.2 0.2 0.1 0.4c0 0.1-0.1 0.3-0.5 0.6l-3.1 3c-0.1 0.1-0.1 0.2-0.1 0.2q-0.1 0.1-0.1 0.2c0 0 0 0.1 0 0.2l0.8 4.3c0 0.4 0.1 0.7 0 0.8q-0.1 0.2-0.3 0.2c-0.1 0.1-0.3-0.1-0.7-0.3l-3.9-2c-0.1 0-0.2-0.1-0.2-0.1q-0.1 0-0.2 0c0 0-0.1 0.1-0.2 0.1l-3.9 2c-0.4 0.2-0.6 0.4-0.7 0.3q-0.2 0-0.3-0.2c-0.1-0.1 0-0.4 0-0.8l0.8-4.3c0-0.1 0-0.2 0-0.2q0-0.1-0.1-0.2c0 0 0-0.1-0.1-0.2l-3.1-3c-0.4-0.3-0.5-0.5-0.5-0.6q-0.1-0.2 0.1-0.4c0.1-0.1 0.3-0.1 0.8-0.2l4.2-0.6c0.2 0 0.2 0 0.3-0.1q0.1 0 0.1-0.1c0.1 0 0.1-0.1 0.2-0.2z"/></svg>