<svg width="36" height="36" viewBox="0 0 36 36" fill="none" xmlns="http://www.w3.org/2000/svg">
<path d="M12 18H24M18 12V24M15.2 12H20.8C21.9201 12 22.4802 12 22.908 12.218C23.2843 12.4097 23.5903 12.7157 23.782 13.092C24 13.5198 24 14.0799 24 15.2V20.8C24 21.9201 24 22.4802 23.782 22.908C23.5903 23.2843 23.2843 23.5903 22.908 23.782C22.4802 24 21.9201 24 20.8 24H15.2C14.0799 24 13.5198 24 13.092 23.782C12.7157 23.5903 12.4097 23.2843 12.218 22.908C12 22.4802 12 21.9201 12 20.8V15.2C12 14.0799 12 13.5198 12.218 13.092C12.4097 12.7157 12.7157 12.4097 13.092 12.218C13.5198 12 14.0799 12 15.2 12Z" stroke="#4A515C" stroke-width="1.5" stroke-linecap="round" stroke-linejoin="round"/>
</svg>
