<svg width="24" height="25" viewBox="0 0 24 25" fill="none" xmlns="http://www.w3.org/2000/svg">
<path d="M16 3.36328C17.3261 3.36328 18.5979 3.89007 19.5355 4.82775C20.4732 5.76543 21 7.0372 21 8.36328V16.3633C21 17.6894 20.4732 18.9611 19.5355 19.8988C18.5979 20.8365 17.3261 21.3633 16 21.3633H8C6.67392 21.3633 5.40215 20.8365 4.46447 19.8988C3.52678 18.9611 3 17.6894 3 16.3633V8.36328C3 7.0372 3.52678 5.76543 4.46447 4.82775C5.40215 3.89007 6.67392 3.36328 8 3.36328H16ZM12 8.36328C10.9391 8.36328 9.92172 8.78471 9.17157 9.53485C8.42143 10.285 8 11.3024 8 12.3633C8 13.4241 8.42143 14.4416 9.17157 15.1917C9.92172 15.9419 10.9391 16.3633 12 16.3633C13.0609 16.3633 14.0783 15.9419 14.8284 15.1917C15.5786 14.4416 16 13.4241 16 12.3633C16 11.3024 15.5786 10.285 14.8284 9.53485C14.0783 8.78471 13.0609 8.36328 12 8.36328ZM12 10.3633C12.5304 10.3633 13.0391 10.574 13.4142 10.9491C13.7893 11.3241 14 11.8328 14 12.3633C14 12.8937 13.7893 13.4024 13.4142 13.7775C13.0391 14.1526 12.5304 14.3633 12 14.3633C11.4696 14.3633 10.9609 14.1526 10.5858 13.7775C10.2107 13.4024 10 12.8937 10 12.3633C10 11.8328 10.2107 11.3241 10.5858 10.9491C10.9609 10.574 11.4696 10.3633 12 10.3633ZM16.5 6.86328C16.2348 6.86328 15.9804 6.96864 15.7929 7.15617C15.6054 7.34371 15.5 7.59806 15.5 7.86328C15.5 8.1285 15.6054 8.38285 15.7929 8.57039C15.9804 8.75792 16.2348 8.86328 16.5 8.86328C16.7652 8.86328 17.0196 8.75792 17.2071 8.57039C17.3946 8.38285 17.5 8.1285 17.5 7.86328C17.5 7.59806 17.3946 7.34371 17.2071 7.15617C17.0196 6.96864 16.7652 6.86328 16.5 6.86328Z" fill="#AD1113"/>
</svg>
