<svg width="17" height="17" viewBox="0 0 17 17" fill="none" xmlns="http://www.w3.org/2000/svg">
<path fill-rule="evenodd" clip-rule="evenodd" d="M0 2.24563C0 1.20604 0.84423 0.363281 1.88565 0.363281C2.38576 0.363281 2.86538 0.561601 3.21901 0.914611C3.57263 1.26762 3.7713 1.7464 3.7713 2.24563C3.7713 3.28523 2.92707 4.12799 1.88565 4.12799C0.84423 4.12799 0 3.28523 0 2.24563ZM16.4961 10.1613C16.5286 8.12348 15.136 6.33785 13.149 5.8695C11.8175 5.58329 10.4296 5.9586 9.4249 6.87658V6.48128C9.4249 6.22137 9.2138 6.01068 8.9535 6.01068H6.5964C6.3361 6.01068 6.125 6.22137 6.125 6.48128V15.8931C6.125 16.1529 6.3361 16.3636 6.5964 16.3636H8.9535C9.2138 16.3636 9.4249 16.1529 9.4249 15.8931V10.5848C9.4016 9.63958 10.0615 8.81418 10.99 8.62718C11.5428 8.53188 12.1094 8.68728 12.5359 9.05118C12.9623 9.41498 13.2044 9.94958 13.1962 10.5095V15.8931C13.1962 16.1529 13.4072 16.3636 13.6676 16.3636H16.0247C16.285 16.3636 16.4961 16.1529 16.4961 15.8931V10.1613ZM3.76864 6.48228V15.8941C3.76864 16.154 3.55758 16.3647 3.29723 16.3647H0.94016C0.67981 16.3647 0.46875 16.154 0.46875 15.8941V6.48228C0.46875 6.22241 0.67981 6.01172 0.94016 6.01172H3.29723C3.55758 6.01172 3.76864 6.22241 3.76864 6.48228Z" fill="#AD1113"/>
</svg>
