<svg width="36" height="36" viewBox="0 0 36 36" fill="none" xmlns="http://www.w3.org/2000/svg">
<path d="M24 18L16 18M24 14L16 14M24 22L16 22M13.3333 18C13.3333 18.3682 13.0349 18.6666 12.6667 18.6666C12.2985 18.6666 12 18.3682 12 18C12 17.6318 12.2985 17.3333 12.6667 17.3333C13.0349 17.3333 13.3333 17.6318 13.3333 18ZM13.3333 14C13.3333 14.3682 13.0349 14.6666 12.6667 14.6666C12.2985 14.6666 12 14.3682 12 14C12 13.6318 12.2985 13.3333 12.6667 13.3333C13.0349 13.3333 13.3333 13.6318 13.3333 14ZM13.3333 22C13.3333 22.3682 13.0349 22.6666 12.6667 22.6666C12.2985 22.6666 12 22.3682 12 22C12 21.6318 12.2985 21.3333 12.6667 21.3333C13.0349 21.3333 13.3333 21.6318 13.3333 22Z" stroke="#4A515C" stroke-width="1.5" stroke-linecap="round" stroke-linejoin="round"/>
</svg>
