<svg width="16" height="16" viewBox="0 0 16 16" fill="none" xmlns="http://www.w3.org/2000/svg">
<g clip-path="url(#clip0_3958_4737)">
<path d="M3.33212 9.33333H12.0893C12.7645 9.33333 13.1021 9.33333 13.3709 9.20744C13.6076 9.09655 13.8066 8.91849 13.9429 8.69543C14.0977 8.44221 14.135 8.10666 14.2096 7.43558L14.5996 3.92556C14.6223 3.72058 14.6337 3.6181 14.6008 3.53877C14.5718 3.4691 14.5201 3.41131 14.454 3.37485C14.3788 3.33333 14.2757 3.33333 14.0695 3.33333H2.99879M1.33203 1.33333H2.16432C2.34074 1.33333 2.42895 1.33333 2.49796 1.36688C2.55871 1.39641 2.60906 1.44371 2.64232 1.5025C2.68011 1.56929 2.68561 1.65732 2.69662 1.83339L3.30078 11.4999C3.31178 11.676 3.31728 11.764 3.35507 11.8308C3.38834 11.8896 3.43869 11.9369 3.49944 11.9664C3.56845 12 3.65666 12 3.83307 12H12.6654M4.9987 14.3333H5.00536M10.9987 14.3333H11.0054M5.33203 14.3333C5.33203 14.5174 5.18279 14.6667 4.9987 14.6667C4.8146 14.6667 4.66536 14.5174 4.66536 14.3333C4.66536 14.1492 4.8146 14 4.9987 14C5.18279 14 5.33203 14.1492 5.33203 14.3333ZM11.332 14.3333C11.332 14.5174 11.1828 14.6667 10.9987 14.6667C10.8146 14.6667 10.6654 14.5174 10.6654 14.3333C10.6654 14.1492 10.8146 14 10.9987 14C11.1828 14 11.332 14.1492 11.332 14.3333Z" stroke="#4A515C" stroke-width="1.5" stroke-linecap="round" stroke-linejoin="round"/>
</g>
<defs>
<clipPath id="clip0_3958_4737">
<rect width="16" height="16" fill="white"/>
</clipPath>
</defs>
</svg>
