<svg width="64" height="64" viewBox="0 0 64 64" fill="none" xmlns="http://www.w3.org/2000/svg">
<rect width="64" height="64" rx="32" fill="#AD1113"/>
<path d="M45.0662 29.3333C45.6751 32.3217 45.2411 35.4286 43.8366 38.1357C42.4322 40.8429 40.142 42.9867 37.3482 44.2097C34.5544 45.4328 31.4257 45.661 28.4839 44.8565C25.5421 44.0519 22.9651 42.2632 21.1825 39.7885C19.4 37.3139 18.5197 34.303 18.6884 31.2578C18.8571 28.2127 20.0647 25.3174 22.1097 23.0549C24.1547 20.7923 26.9136 19.2992 29.9263 18.8246C32.9389 18.35 36.0232 18.9225 38.6648 20.4467" stroke="#FFF3F3" stroke-width="2.66667" stroke-linecap="round" stroke-linejoin="round"/>
<path d="M28 30.6667L32 34.6667L45.3333 21.3333" stroke="#FFF3F3" stroke-width="2.66667" stroke-linecap="round" stroke-linejoin="round"/>
</svg>
