<svg width="20" height="20" viewBox="0 0 20 20" fill="none" xmlns="http://www.w3.org/2000/svg">
<path d="M7.7273 18.4849C8.1457 18.4849 8.48488 18.1457 8.48488 17.7273C8.48488 17.3089 8.1457 16.9697 7.7273 16.9697C7.3089 16.9697 6.96973 17.3089 6.96973 17.7273C6.96973 18.1457 7.3089 18.4849 7.7273 18.4849Z" fill="#394B59" stroke="#394B59" stroke-width="1.5" stroke-linecap="round" stroke-linejoin="round"/>
<path d="M16.0606 18.4849C16.479 18.4849 16.8181 18.1457 16.8181 17.7273C16.8181 17.3089 16.479 16.9697 16.0606 16.9697C15.6422 16.9697 15.303 17.3089 15.303 17.7273C15.303 18.1457 15.6422 18.4849 16.0606 18.4849Z" fill="#394B59" stroke="#394B59" stroke-width="1.5" stroke-linecap="round" stroke-linejoin="round"/>
<path d="M1.66675 2.57568H4.69705L6.72735 12.7196C6.79663 13.0684 6.98637 13.3817 7.26337 13.6047C7.54037 13.8277 7.88697 13.9461 8.2425 13.9393H15.6061C15.9617 13.9461 16.3083 13.8277 16.5853 13.6047C16.8623 13.3817 17.052 13.0684 17.1213 12.7196L18.3334 6.36356H5.45463" stroke="#394B59" stroke-width="2" stroke-linecap="round" stroke-linejoin="round"/>
</svg>
