<svg version="1.2" xmlns="http://www.w3.org/2000/svg" viewBox="0 0 16 14" width="16" height="14"><style>.a{fill:none;stroke:#bea660;stroke-linecap:round;stroke-linejoin:round;stroke-width:1.5}</style><path fill-rule="evenodd" class="a" d="m3 13.7v-3.4m0-6.6v-3.4m-1.7 1.7h3.4m-3.4 10h3.4m4-11l-1.2 3c-0.2 0.5-0.3 0.7-0.4 0.9q-0.2 0.3-0.5 0.5c-0.2 0.2-0.4 0.3-0.9 0.4l-3 1.2 3 1.2c0.5 0.1 0.7 0.2 0.9 0.4q0.3 0.2 0.5 0.5c0.1 0.2 0.2 0.4 0.4 0.9l1.2 3 1.1-3c0.2-0.5 0.3-0.7 0.5-0.9q0.1-0.3 0.4-0.5c0.2-0.2 0.5-0.3 1-0.4l3-1.2-3-1.2c-0.5-0.1-0.8-0.2-1-0.4q-0.3-0.2-0.4-0.5c-0.2-0.2-0.3-0.4-0.5-0.9z"/></svg>