<svg width="16" height="14" viewBox="0 0 16 14" fill="none" xmlns="http://www.w3.org/2000/svg">
<path d="M15.9766 2.31981C15.5638 2.86644 15.0647 3.34327 14.4988 3.73189C14.4988 3.87468 14.4988 4.01748 14.4988 4.1682C14.5034 6.76128 13.4599 9.24778 11.6023 11.0702C9.7448 12.8926 7.2285 13.8985 4.61769 13.8624C3.10831 13.8674 1.61825 13.5252 0.264238 12.8628C0.191228 12.8312 0.144139 12.7594 0.144419 12.6803V12.5931C0.144419 12.4792 0.237408 12.3868 0.352108 12.3868C1.8358 12.3383 3.26656 11.8276 4.44196 10.9271C3.09901 10.9003 1.8907 10.1106 1.33463 8.89628C1.30654 8.82998 1.31529 8.75388 1.35771 8.69558C1.40013 8.63718 1.47009 8.60508 1.54232 8.61068C1.95047 8.65138 2.3627 8.61368 2.75649 8.49958C1.27399 8.19418 0.160058 6.97248 0.000638444 5.47718C-0.00503156 5.40538 0.0273586 5.33594 0.0860886 5.29381C0.144819 5.25168 0.221418 5.243 0.288208 5.27089C0.686038 5.44518 1.11551 5.53688 1.55031 5.54058C0.251289 4.69427 -0.309811 3.0845 0.184359 1.62171C0.235369 1.47957 0.357918 1.37456 0.506978 1.34528C0.656028 1.316 0.809609 1.36676 0.911269 1.47891C2.66422 3.33086 5.07279 4.43442 7.6292 4.55692C7.5637 4.29755 7.5315 4.03101 7.5333 3.76362C7.5572 2.36156 8.4311 1.11258 9.746 0.6014C11.0608 0.0902301 12.5563 0.41802 13.5323 1.43132C14.1976 1.3055 14.8408 1.08367 15.4414 0.77288C15.4854 0.74561 15.5412 0.74561 15.5852 0.77288C15.6126 0.81657 15.6126 0.87198 15.5852 0.91567C15.2943 1.57697 14.8028 2.13162 14.1793 2.50227C14.7253 2.43942 15.2617 2.31158 15.7769 2.12149C15.8203 2.09218 15.8773 2.09218 15.9207 2.12149C15.957 2.13799 15.9842 2.16956 15.995 2.20777C16.0057 2.24598 15.999 2.28697 15.9766 2.31981Z" fill="#AD1113"/>
</svg>
