<svg width="20" height="20" viewBox="0 0 20 20" fill="none" xmlns="http://www.w3.org/2000/svg">
<path d="M4.43033 16.1985C4.93727 15.0042 6.12085 14.1665 7.50008 14.1665H12.5001C13.8793 14.1665 15.0629 15.0042 15.5698 16.1985M13.3334 7.9165C13.3334 9.75745 11.841 11.2498 10.0001 11.2498C8.15913 11.2498 6.66675 9.75745 6.66675 7.9165C6.66675 6.07555 8.15913 4.58317 10.0001 4.58317C11.841 4.58317 13.3334 6.07555 13.3334 7.9165ZM18.3334 9.99984C18.3334 14.6022 14.6025 18.3332 10.0001 18.3332C5.39771 18.3332 1.66675 14.6022 1.66675 9.99984C1.66675 5.39746 5.39771 1.6665 10.0001 1.6665C14.6025 1.6665 18.3334 5.39746 18.3334 9.99984Z" stroke="#4A515C" stroke-width="1.66667" stroke-linecap="round" stroke-linejoin="round"/>
</svg>
