<svg width="39" height="59" viewBox="0 0 39 59" fill="none" xmlns="http://www.w3.org/2000/svg">
<path d="M9.51129 58.95C9.40546 58.95 9.30066 58.9254 9.20288 58.8776C9.10511 58.8298 9.01628 58.7597 8.94144 58.6714C8.86661 58.5831 8.80725 58.4783 8.76675 58.3629C8.72625 58.2476 8.7054 58.1239 8.7054 57.999C8.7054 57.8741 8.72625 57.7505 8.76675 57.6351C8.80725 57.5197 8.86661 57.4149 8.94144 57.3266C9.01628 57.2383 9.10511 57.1682 9.20288 57.1204C9.30066 57.0726 9.40546 57.048 9.51129 57.048H18.6814V45.186L18.0537 45.1259C16.6908 45.0103 15.341 44.7354 14.0242 44.3051H13.9733H13.8546L13.7443 44.255C13.0632 44.0187 12.3947 43.7346 11.7423 43.4041L11.1061 43.0138C0.264846 37.338 0.0103417 29.5 0.0103417 28.6291C-0.286563 15.4758 5.90602 1.12114 6.16899 0.520533C6.23513 0.364279 6.33682 0.232837 6.46267 0.140905C6.58852 0.0489734 6.73355 0.000191731 6.88156 1.48288e-05H32.1184C32.2666 -0.000972023 32.4121 0.0473156 32.5381 0.139378C32.6641 0.23144 32.7657 0.363541 32.831 0.520533C33.1024 1.12114 39.2865 15.4357 38.9896 28.5991C38.9896 29.5301 38.7267 37.6083 27.4104 43.274L26.7742 43.5943C26.4773 43.7345 26.1719 43.8646 25.8241 44.0048L25.612 44.0948L25.0521 44.3451H24.8824H24.7637C23.5105 44.7557 22.2263 45.0206 20.9294 45.1359L20.3016 45.186V57.048H29.4717C29.5991 56.9986 29.7347 56.9855 29.8672 57.0099C29.9997 57.0343 30.1254 57.0953 30.2341 57.1882C30.3427 57.281 30.4312 57.4029 30.4921 57.5438C30.5531 57.6847 30.5849 57.8407 30.5849 57.999C30.5849 58.1573 30.5531 58.3133 30.4921 58.4542C30.4312 58.5952 30.3427 58.717 30.2341 58.8098C30.1254 58.9026 29.9997 58.9637 29.8672 58.9881C29.7347 59.0124 29.5991 58.9994 29.4717 58.95H9.51129ZM2.20746 20.1805C1.76644 22.9286 1.56461 25.7226 1.60515 28.519C1.60515 28.9494 1.69846 36.9676 13.9818 42.283C15.7851 42.9371 17.6601 43.2744 19.5466 43.284C21.4699 43.2882 23.3809 42.9231 25.2048 42.2029C37.5645 36.7474 37.3694 28.6692 37.3609 28.5891C37.4037 25.7727 37.2019 22.9584 36.7586 20.1905L36.6568 19.5299H31.338L33.815 24.8953C33.9069 25.1193 33.9249 25.3757 33.8653 25.6145C33.8057 25.8532 33.6728 26.0572 33.4927 26.1867L25.1115 31.5721C24.9955 31.6514 24.8638 31.6929 24.7298 31.6923C24.5846 31.6878 24.4429 31.6394 24.3181 31.5517C24.1933 31.4641 24.0897 31.3402 24.0172 31.1917L22.9144 28.7993L22.1085 37.1678C22.0814 37.4179 21.9754 37.6466 21.8116 37.8085C21.6658 37.942 21.4871 38.0158 21.3026 38.0187H21.2093L11.7338 36.7474C11.5256 36.708 11.3372 36.5786 11.2055 36.3843C11.0737 36.19 11.0081 35.9447 11.0213 35.6963L12.0986 24.5049C12.1292 24.2797 12.2241 24.0735 12.3676 23.9206C12.5111 23.7677 12.6945 23.6772 12.8875 23.6641H12.9893L21.0397 24.7452L19.4533 21.3217C19.353 21.0971 19.3288 20.8359 19.3855 20.591C19.4516 20.3531 19.5908 20.1531 19.7757 20.0304L28.1569 14.6349C28.2728 14.5556 28.4046 14.5141 28.5386 14.5148C28.6147 14.5051 28.6915 14.5051 28.7677 14.5148C28.9724 14.5906 29.1451 14.7551 29.2512 14.9752L30.4558 17.5979H36.326L36.1139 16.5969C35.0589 11.6713 33.6104 6.87497 31.7876 2.27231L31.601 1.81186H7.39054L7.21241 2.27231C5.3856 6.87406 3.9341 11.6705 2.87759 16.5969L2.67401 17.5979H16.2468C15.8871 18.1612 15.6143 18.7948 15.4409 19.4698H2.3347L2.20746 20.1805ZM12.7179 34.9456L20.5986 35.9966L21.4977 26.6971L13.6086 25.6461L12.7179 34.9456ZM21.2517 21.2216L25.0521 29.44L32.0166 24.9654L28.2162 16.737L21.2517 21.2216Z" fill="#AD1113"/>
</svg>
