<svg width="16" height="16" viewBox="0 0 16 16" fill="none" xmlns="http://www.w3.org/2000/svg">
<g clip-path="url(#clip0_3958_3641)">
<path d="M3.9987 13.3914H5.73889C5.96578 13.3914 6.19129 13.4184 6.41124 13.4724L8.24996 13.9193C8.64893 14.0164 9.06455 14.0259 9.46768 13.9476L11.5007 13.5521C12.0377 13.4475 12.5318 13.1903 12.9189 12.8137L14.3573 11.4145C14.7681 11.0156 14.7681 10.3683 14.3573 9.96871C13.9875 9.60896 13.4018 9.56846 12.9835 9.87354L11.3071 11.0966C11.067 11.2721 10.7749 11.3666 10.4745 11.3666H8.8557L9.88608 11.3665C10.4668 11.3665 10.9373 10.9089 10.9373 10.3439V10.1394C10.9373 9.67033 10.6091 9.26131 10.1414 9.14792L8.55109 8.76116C8.29229 8.69839 8.02723 8.66667 7.76079 8.66667C7.11759 8.66667 5.95329 9.19921 5.95329 9.19921L3.9987 10.0166M1.33203 9.73334L1.33203 13.6C1.33203 13.9734 1.33203 14.1601 1.40469 14.3027C1.46861 14.4281 1.5706 14.5301 1.69604 14.594C1.83865 14.6667 2.02533 14.6667 2.3987 14.6667H2.93203C3.3054 14.6667 3.49208 14.6667 3.63469 14.594C3.76013 14.5301 3.86212 14.4281 3.92604 14.3027C3.9987 14.1601 3.9987 13.9734 3.9987 13.6V9.73334C3.9987 9.35997 3.9987 9.17328 3.92604 9.03067C3.86212 8.90523 3.76013 8.80325 3.63469 8.73933C3.49208 8.66667 3.3054 8.66667 2.93203 8.66667H2.3987C2.02533 8.66667 1.83865 8.66667 1.69604 8.73933C1.5706 8.80325 1.46861 8.90523 1.40469 9.03067C1.33203 9.17328 1.33203 9.35997 1.33203 9.73334ZM11.4596 2.39484C11.0617 1.56227 10.1444 1.12119 9.25232 1.54692C8.36022 1.97264 7.98016 2.98225 8.35367 3.86855C8.5845 4.41631 9.24586 5.48 9.71742 6.21269C9.89166 6.48341 9.97878 6.61877 10.106 6.69795C10.2152 6.76587 10.3518 6.80249 10.4803 6.79824C10.6301 6.79328 10.7732 6.71962 11.0595 6.57229C11.8342 6.17354 12.9388 5.58304 13.4126 5.22408C14.1792 4.64328 14.3691 3.57572 13.7951 2.76416C13.2212 1.9526 12.2205 1.87275 11.4596 2.39484Z" stroke="#4A515C" stroke-width="1.5" stroke-linecap="round" stroke-linejoin="round"/>
</g>
<defs>
<clipPath id="clip0_3958_3641">
<rect width="16" height="16" fill="white"/>
</clipPath>
</defs>
</svg>
